<?xml version="1.0" encoding="UTF-8"?>
<svg width="10px" height="7px" viewBox="0 0 10 7" version="1.1" xmlns="http://www.w3.org/2000/svg" xmlns:xlink="http://www.w3.org/1999/xlink">
    <!-- Generator: sketchtool 42 (36781) - http://www.bohemiancoding.com/sketch -->
    <title>DC8FAAE3-6864-4DCB-A06E-104F40D9F4D2</title>
    <desc>Created with sketchtool.</desc>
    <defs></defs>
    <g id="Page-1" stroke="none" stroke-width="1" fill="none" fill-rule="evenodd">
        <g id="Generic-Page" transform="translate(-248.000000, -2280.000000)" fill="#606060">
            <g id="Group" transform="translate(80.000000, 2264.000000)">
                <g id="Group-19" transform="translate(122.000000, 0.000000)">
                    <path d="M56,17.0056582 C56,16.9225173 55.9596005,16.8301386 55.8990012,16.7689376 L55.3984962,16.2527714 C55.337897,16.1915704 55.2481203,16.15 55.1684435,16.15 C55.0876445,16.15 54.9978678,16.1915704 54.9372685,16.2527714 L50.9994389,20.3047344 L47.0616092,16.2527714 C47.0021322,16.1915704 46.9112333,16.15 46.8315565,16.15 C46.7417798,16.15 46.6609808,16.1915704 46.6015038,16.2527714 L46.0998766,16.7689376 C46.0403995,16.8301386 46,16.9225173 46,17.0056582 C46,17.0876443 46.0403995,17.1811778 46.0998766,17.2423788 L50.7693862,22.0472286 C50.8299854,22.1095843 50.9197621,22.15 50.9994389,22.15 C51.0802379,22.15 51.1700146,22.1095843 51.2306138,22.0472286 L55.8990012,17.2423788 C55.9596005,17.1811778 56,17.0876443 56,17.0056582 L56,17.0056582 Z" id="arrowDownGRey"></path>
                </g>
            </g>
        </g>
    </g>
</svg>