<?xml version="1.0" encoding="UTF-8"?>
<svg width="10px" height="6px" viewBox="0 0 10 6" version="1.1" xmlns="http://www.w3.org/2000/svg" xmlns:xlink="http://www.w3.org/1999/xlink">
    <!-- Generator: sketchtool 42 (36781) - http://www.bohemiancoding.com/sketch -->
    <title>E3F78516-9BCD-481D-863B-698BAE822A5E</title>
    <desc>Created with sketchtool.</desc>
    <defs></defs>
    <g id="Page-1" stroke="none" stroke-width="1" fill="none" fill-rule="evenodd">
        <g id="Generic-Page" transform="translate(-508.000000, -2279.000000)" fill="#606060">
            <g id="LooutOverlay" transform="translate(340.000000, 2257.000000)">
                <g id="Group-19" transform="translate(122.000000, 7.000000)">
                    <path d="M56,15.8556582 C56,15.7725173 55.9596005,15.6801386 55.8990012,15.6189376 L55.3984962,15.1027714 C55.337897,15.0415704 55.2481203,15 55.1684435,15 C55.0876445,15 54.9978678,15.0415704 54.9372685,15.1027714 L50.9994389,19.1547344 L47.0616092,15.1027714 C47.0021322,15.0415704 46.9112333,15 46.8315565,15 C46.7417798,15 46.6609808,15.0415704 46.6015038,15.1027714 L46.0998766,15.6189376 C46.0403995,15.6801386 46,15.7725173 46,15.8556582 C46,15.9376443 46.0403995,16.0311778 46.0998766,16.0923788 L50.7693862,20.8972286 C50.8299854,20.9595843 50.9197621,21 50.9994389,21 C51.0802379,21 51.1700146,20.9595843 51.2306138,20.8972286 L55.8990012,16.0923788 C55.9596005,16.0311778 56,15.9376443 56,15.8556582 L56,15.8556582 Z" id="arrowDownGRey-Copy" transform="translate(51.000000, 18.000000) rotate(180.000000) translate(-51.000000, -18.000000) "></path>
                </g>
            </g>
        </g>
    </g>
</svg>