<svg xmlns="http://www.w3.org/2000/svg" xmlns:xlink="http://www.w3.org/1999/xlink" viewBox="0 0 64 64" version="1.1" width="50" height="50">
<g id="surface1">
<path style=" " d="M 13 4 C 11.347656 4 10 5.347656 10 7 L 10 57 C 10 58.652344 11.347656 60 13 60 L 53 60 C 54.652344 60 56 58.652344 56 57 L 56 17.65625 C 56 16.320313 55.480469 15.066406 54.535156 14.121094 L 45.878906 5.464844 C 44.9375 4.519531 43.679688 4 42.34375 4 Z M 13 6 L 42 6 L 42 15 C 42 16.652344 43.347656 18 45 18 L 54 18 L 54 57 C 54 57.550781 53.550781 58 53 58 L 13 58 C 12.449219 58 12 57.550781 12 57 L 12 7 C 12 6.449219 12.449219 6 13 6 Z M 44 6.5 C 44.164063 6.609375 44.320313 6.734375 44.464844 6.878906 L 53.121094 15.535156 C 53.261719 15.675781 53.390625 15.832031 53.5 16 L 45 16 C 44.449219 16 44 15.550781 44 15 Z M 23 30 C 22.449219 30 22 30.445313 22 31 C 22 31.554688 22.449219 32 23 32 L 43 32 C 43.550781 32 44 31.554688 44 31 C 44 30.445313 43.550781 30 43 30 Z M 23 34 C 22.449219 34 22 34.445313 22 35 C 22 35.554688 22.449219 36 23 36 L 43 36 C 43.550781 36 44 35.554688 44 35 C 44 34.445313 43.550781 34 43 34 Z M 23 38 C 22.449219 38 22 38.445313 22 39 C 22 39.554688 22.449219 40 23 40 L 43 40 C 43.550781 40 44 39.554688 44 39 C 44 38.445313 43.550781 38 43 38 Z M 23 42 C 22.449219 42 22 42.445313 22 43 C 22 43.554688 22.449219 44 23 44 L 33 44 C 33.550781 44 34 43.554688 34 43 C 34 42.445313 33.550781 42 33 42 Z M 15 50 C 14.449219 50 14 50.445313 14 51 L 14 53 C 14 53.554688 14.449219 54 15 54 C 15.550781 54 16 53.554688 16 53 L 16 51 C 16 50.445313 15.550781 50 15 50 Z M 20 50 C 19.449219 50 19 50.445313 19 51 L 19 53 C 19 53.554688 19.449219 54 20 54 C 20.550781 54 21 53.554688 21 53 L 21 51 C 21 50.445313 20.550781 50 20 50 Z M 25 50 C 24.449219 50 24 50.445313 24 51 L 24 53 C 24 53.554688 24.449219 54 25 54 C 25.550781 54 26 53.554688 26 53 L 26 51 C 26 50.445313 25.550781 50 25 50 Z M 30 50 C 29.449219 50 29 50.445313 29 51 L 29 53 C 29 53.554688 29.449219 54 30 54 C 30.550781 54 31 53.554688 31 53 L 31 51 C 31 50.445313 30.550781 50 30 50 Z M 35 50 C 34.449219 50 34 50.445313 34 51 L 34 53 C 34 53.554688 34.449219 54 35 54 C 35.550781 54 36 53.554688 36 53 L 36 51 C 36 50.445313 35.550781 50 35 50 Z M 40 50 C 39.449219 50 39 50.445313 39 51 L 39 53 C 39 53.554688 39.449219 54 40 54 C 40.550781 54 41 53.554688 41 53 L 41 51 C 41 50.445313 40.550781 50 40 50 Z M 45 50 C 44.449219 50 44 50.445313 44 51 L 44 53 C 44 53.554688 44.449219 54 45 54 C 45.550781 54 46 53.554688 46 53 L 46 51 C 46 50.445313 45.550781 50 45 50 Z M 50 50 C 49.449219 50 49 50.445313 49 51 L 49 53 C 49 53.554688 49.449219 54 50 54 C 50.550781 54 51 53.554688 51 53 L 51 51 C 51 50.445313 50.550781 50 50 50 Z "/>
</g>
</svg>