<?xml version="1.0" encoding="UTF-8"?>
<svg width="83px" height="109px" viewBox="0 0 83 109" version="1.1" xmlns="http://www.w3.org/2000/svg" xmlns:xlink="http://www.w3.org/1999/xlink">
    <!-- Generator: Sketch 57.1 (83088) - https://sketch.com -->
    <title>Group 10</title>
    <desc>Created with Sketch.</desc>
    <g id="Page-1" stroke="none" stroke-width="1" fill="none" fill-rule="evenodd">
        <g id="AA---TOR-—-2.1-" transform="translate(-391.000000, -426.000000)">
            <g id="Group-5" transform="translate(149.000000, 307.000000)">
                <g id="Group">
                    <g id="Group-10" transform="translate(243.500000, 119.000000)">
                        <polygon id="Fill-1" fill="#FFFFFF" points="0 108 63 108 63 18 0 18"></polygon>
                        <polygon id="Stroke-2" stroke="#000000" stroke-width="2" points="0 108 63 108 63 18 0 18"></polygon>
                        <polygon id="Fill-4" fill="#FFFFFF" points="80 91 17 91 17 1 62.9793562 1 71.6424073 9.33436072 80 17.7639773"></polygon>
                        <g id="Group-9" transform="translate(16.000000, 0.000000)">
                            <polygon id="Stroke-5" stroke="#000000" stroke-width="2" points="64.0319429 90.9431234 1.15594286 90.9431234 1.15594286 1.08928273 47.0448 1.08928273 55.6908 9.41010851 64.0319429 17.8260354"></polygon>
                            <path d="M48.3084381,3.59274142 L61.5021524,16.7543189 L48.3084381,16.7543189 L48.3084381,3.59274142 Z M2.2132,2.12337681 L46.2132,2.12337681 L46.2132,17.7993862 L46.2132,18.8444535 L47.260819,18.8444535 L62.9751048,18.8444535 L62.9751048,89.9079843 L2.2132,89.9079843 L2.2132,2.12337681 Z M0.117961905,0.0332422274 L0.117961905,1.07830952 L0.117961905,90.9530516 L0.117961905,91.9981189 L1.16558095,91.9981189 L64.0227238,91.9981189 L65.0703429,91.9981189 L65.0703429,90.9530516 L65.0703429,17.3416467 C58.9344381,11.4213405 52.9556762,5.09136792 47.6861524,0.0332422274 L1.16558095,0.0332422274 L0.117961905,0.0332422274 Z" id="Fill-7" fill="#000000"></path>
                        </g>
                    </g>
                </g>
            </g>
        </g>
    </g>
</svg>