<?xml version="1.0" encoding="UTF-8"?>
<svg width="16px" height="16px" viewBox="0 0 16 16" version="1.1" xmlns="http://www.w3.org/2000/svg" xmlns:xlink="http://www.w3.org/1999/xlink">
    <!-- Generator: Sketch 57.1 (83088) - https://sketch.com -->
    <title>Group 6</title>
    <desc>Created with Sketch.</desc>
    <defs>
        <polygon id="path-1" points="0.0635702075 0.0465465465 8.15264601 0.0465465465 8.15264601 13.2657285 0.0635702075 13.2657285"></polygon>
    </defs>
    <g id="Page-1" stroke="none" stroke-width="1" fill="none" fill-rule="evenodd">
        <g id="AA---TOR-—-3.5" transform="translate(-1293.000000, -427.000000)">
            <g id="Group-10" transform="translate(1194.000000, 405.000000)">
                <g id="Group-6" transform="translate(99.000000, 22.000000)">
                    <path d="M15.2380952,9.07006369 C15.2380952,8.50817697 16,8.50817697 16,9.07006369 L16,15.6254088 C16,15.8127044 15.8095238,16 15.6190476,16 L0.380952381,16 C0.19047619,16 0,15.8127044 0,15.6254088 L0,9.07006369 C0,8.50817697 0.761904762,8.50817697 0.761904762,9.07006369 L0.761904762,15.2508177 L15.2380952,15.2508177 L15.2380952,9.07006369 Z" id="Fill-1" fill="#000000"></path>
                    <g id="Group-5" transform="translate(3.891892, 0.000000)">
                        <mask id="mask-2" fill="white">
                            <use xlink:href="#path-1"></use>
                        </mask>
                        <g id="Clip-4"></g>
                        <path d="M8.02948403,3.90987267 C8.4029484,4.28224505 7.84275184,4.65461742 7.46928747,4.28224505 L4.48157248,1.30326607 L4.48157248,12.8468096 C4.48157248,13.4053682 3.73464373,13.4053682 3.73464373,12.8468096 L3.73464373,1.30326607 L0.746928747,4.28224505 C0.373464373,4.65461742 -0.186732187,4.28224505 0.186732187,3.90987267 L3.73464373,0.186148949 C3.92137592,-3.72372372e-05 4.29484029,-3.72372372e-05 4.48157248,0.186148949 L8.02948403,3.90987267 Z" id="Fill-3" fill="#000000" mask="url(#mask-2)"></path>
                    </g>
                </g>
            </g>
        </g>
    </g>
</svg>