<?xml version="1.0" encoding="UTF-8"?>
<svg width="35px" height="30px" viewBox="0 0 35 30" version="1.1" xmlns="http://www.w3.org/2000/svg" xmlns:xlink="http://www.w3.org/1999/xlink">
    <!-- Generator: Sketch 57.1 (83088) - https://sketch.com -->
    <title>Group</title>
    <desc>Created with Sketch.</desc>
    <g id="Page-1" stroke="none" stroke-width="1" fill="none" fill-rule="evenodd">
        <g id="AA---TOR-—-3.1-" transform="translate(-515.000000, -226.000000)">
            <g id="Group" transform="translate(515.000000, 227.000000)">
                <path d="M6.5,1 L6.5,3 L2,3 L2,27 L33,27 L33,3 L28.5,3 L28.5,1 L35,1 L35,29 L0,29 L0,1 L6.5,1 Z M24.5,3 L19.5,3 L19.5,1 L24.5,1 L24.5,3 Z M15.5,1 L15.5,3 L10.5,3 L10.5,1 L15.5,1 Z" id="Combined-Shape" fill="#616161" fill-rule="nonzero"></path>
                <polygon id="Line-7" fill="#616161" fill-rule="nonzero" points="0 9 35 9 35 7 0 7"></polygon>
                <rect id="Rectangle" stroke="#616161" stroke-width="2" x="5" y="12" width="4" height="4"></rect>
                <rect id="Rectangle-Copy-12" stroke="#616161" stroke-width="2" x="12" y="12" width="4" height="4"></rect>
                <rect id="Rectangle-Copy-14" stroke="#616161" stroke-width="2" x="19" y="12" width="4" height="4"></rect>
                <rect id="Rectangle-Copy-16" stroke="#616161" stroke-width="2" x="26" y="12" width="4" height="4"></rect>
                <rect id="Rectangle-Copy-11" stroke="#616161" stroke-width="2" x="5" y="20" width="4" height="4"></rect>
                <rect id="Rectangle-Copy-13" stroke="#616161" stroke-width="2" x="12" y="20" width="4" height="4"></rect>
                <rect id="Rectangle-Copy-15" stroke="#616161" stroke-width="2" x="19" y="20" width="4" height="4"></rect>
                <rect id="Rectangle-Copy-17" stroke="#616161" stroke-width="2" x="26" y="20" width="4" height="4"></rect>
                <path d="M17.5,0 L17.5,4" id="Line-6" stroke="#616161" stroke-width="2" stroke-linecap="square"></path>
                <path d="M26.5,0 L26.5,4" id="Line-6-Copy" stroke="#616161" stroke-width="2" stroke-linecap="square"></path>
                <path d="M8.5,0 L8.5,4" id="Line-6-Copy-2" stroke="#616161" stroke-width="2" stroke-linecap="square"></path>
            </g>
        </g>
    </g>
</svg>