<?xml version="1.0" encoding="UTF-8"?>
<svg width="13px" height="13px" viewBox="0 0 13 13" version="1.1" xmlns="http://www.w3.org/2000/svg" xmlns:xlink="http://www.w3.org/1999/xlink">
    <!-- Generator: Sketch 57.1 (83088) - https://sketch.com -->
    <title>A - Icon Header 3</title>
    <desc>Created with Sketch.</desc>
    <g id="A---Icon-Header-3" stroke="none" stroke-width="1" fill="none" fill-rule="evenodd">
        <g id="Group" transform="translate(6.500000, 6.500000) rotate(90.000000) translate(-6.500000, -6.500000) translate(-0.500000, -0.500000)" fill="#616161" fill-rule="nonzero">
            <path d="M7,0.5 C8.1045695,0.5 9,1.3954305 9,2.5 C9,3.43155158 8.36311708,4.21435119 7.50102216,4.43672788 L7.50102216,9.56327212 C7.56922034,9.58086378 7.63600914,9.60196257 7.70118476,9.62636469 L10.0132502,5.8377757 C9.69418638,5.48341105 9.5,5.01438286 9.5,4.5 C9.5,3.3954305 10.3954305,2.5 11.5,2.5 C12.6045695,2.5 13.5,3.3954305 13.5,4.5 C13.5,5.6045695 12.6045695,6.5 11.5,6.5 C11.271276,6.5 11.0515195,6.46160548 10.8468241,6.39090992 L8.52204551,10.2024902 C8.82007698,10.5517605 9,11.0048686 9,11.5 C9,12.6045695 8.1045695,13.5 7,13.5 C5.8954305,13.5 5,12.6045695 5,11.5 C5,11.0046939 5.18004998,10.5514408 5.47826994,10.2021206 L3.15317593,6.39090992 C2.94848045,6.46160548 2.72872399,6.5 2.5,6.5 C1.3954305,6.5 0.5,5.6045695 0.5,4.5 C0.5,3.3954305 1.3954305,2.5 2.5,2.5 C3.6045695,2.5 4.5,3.3954305 4.5,4.5 C4.5,5.01438286 4.30581362,5.48341105 3.98674976,5.8377757 L6.29869471,9.62640982 C6.36422797,9.60186896 6.43139239,9.58066785 6.49998077,9.56301369 L6.49998077,4.43698631 C5.63737692,4.21495822 5,3.43191279 5,2.5 C5,1.3954305 5.8954305,0.5 7,0.5 Z M7,10.5 C6.44771525,10.5 6,10.9477153 6,11.5 C6,12.0522847 6.44771525,12.5 7,12.5 C7.55228475,12.5 8,12.0522847 8,11.5 C8,10.9477153 7.55228475,10.5 7,10.5 Z M2.5,3.5 C1.94771525,3.5 1.5,3.94771525 1.5,4.5 C1.5,5.05228475 1.94771525,5.5 2.5,5.5 C3.05228475,5.5 3.5,5.05228475 3.5,4.5 C3.5,3.94771525 3.05228475,3.5 2.5,3.5 Z M11.5,3.5 C10.9477153,3.5 10.5,3.94771525 10.5,4.5 C10.5,5.05228475 10.9477153,5.5 11.5,5.5 C12.0522847,5.5 12.5,5.05228475 12.5,4.5 C12.5,3.94771525 12.0522847,3.5 11.5,3.5 Z M7,1.5 C6.44771525,1.5 6,1.94771525 6,2.5 C6,3.05228475 6.44771525,3.5 7,3.5 C7.55228475,3.5 8,3.05228475 8,2.5 C8,1.94771525 7.55228475,1.5 7,1.5 Z" id="Combined-Shape"></path>
        </g>
    </g>
</svg>