<?xml version="1.0" encoding="UTF-8"?>
<svg width="19px" height="22px" viewBox="0 0 19 22" version="1.1" xmlns="http://www.w3.org/2000/svg" xmlns:xlink="http://www.w3.org/1999/xlink">
    <!-- Generator: Sketch 57.1 (83088) - https://sketch.com -->
    <title>Group 2</title>
    <desc>Created with Sketch.</desc>
    <g id="Symbols" stroke="none" stroke-width="1" fill="none" fill-rule="evenodd">
        <g id="Header-AA" transform="translate(-1361.000000, -21.000000)">
            <g id="Group-2" transform="translate(1361.000000, 22.253981)">
                <path d="M11.9377927,2.06170333 C16.0033087,3.13798279 19,6.84204375 19,11.2460195 C19,16.4927246 14.7467051,20.7460195 9.5,20.7460195 C4.25329488,20.7460195 0,16.4927246 0,11.2460195 C0,6.88727396 2.93545351,3.21414036 6.93728521,2.09569396 L6.93702331,4.19536171 C4.05698599,5.24252304 2,8.00405385 2,11.2460195 C2,15.3881551 5.35786438,18.7460195 9.5,18.7460195 C13.6421356,18.7460195 17,15.3881551 17,11.2460195 C17,7.9574216 14.8834133,5.16317904 11.9381906,4.15124256 Z" id="Combined-Shape" fill="#616161" fill-rule="nonzero"></path>
                <path d="M9.43746092,0.5 L9.43746092,11.007961" id="Line-5" stroke="#616161" stroke-width="2" stroke-linecap="square"></path>
            </g>
        </g>
    </g>
</svg>