<?xml version="1.0" encoding="UTF-8"?>
<svg width="13px" height="13px" viewBox="0 0 13 13" version="1.1" xmlns="http://www.w3.org/2000/svg" xmlns:xlink="http://www.w3.org/1999/xlink">
    <!-- Generator: Sketch 57.1 (83088) - https://sketch.com -->
    <title>A - Icon Header 2</title>
    <desc>Created with Sketch.</desc>
    <g id="A---Icon-Header-2" stroke="none" stroke-width="1" fill="none" fill-rule="evenodd">
        <g id="Group" transform="translate(1.000000, 0.500000)" fill="#616161" fill-rule="nonzero">
            <path d="M5.64644661,0.146446609 C5.84170876,-0.0488155365 6.15829124,-0.0488155365 6.35355339,0.146446609 C6.54881554,0.341708755 6.54881554,0.658291245 6.35355339,0.853553391 L6.35355339,0.853553391 L6.16787245,1.04014022 C8.89045721,1.36971616 11,3.68850302 11,6.5 C11,9.53756612 8.53756612,12 5.5,12 C2.46243388,12 0,9.53756612 0,6.5 C0,4.21140927 1.41085715,2.18679086 3.50872827,1.37168445 C3.76612459,1.27167573 4.05585862,1.3992636 4.15586734,1.65665992 C4.25587605,1.91405625 4.12828819,2.20379028 3.87089186,2.30379899 C2.15443313,2.97071152 1,4.62735448 1,6.5 C1,8.98528137 3.01471863,11 5.5,11 C7.98528137,11 10,8.98528137 10,6.5 C10,4.2789103 8.39085394,2.4336568 6.27476772,2.06644542 L6.35355339,2.14644661 C6.54881554,2.34170876 6.54881554,2.65829124 6.35355339,2.85355339 C6.15829124,3.04881554 5.84170876,3.04881554 5.64644661,2.85355339 L5.64644661,2.85355339 L4.64644661,1.85355339 C4.45118446,1.65829124 4.45118446,1.34170876 4.64644661,1.14644661 L4.64644661,1.14644661 Z" id="Combined-Shape"></path>
            <path d="M7.15490829,4.38882976 C7.36644562,4.56633066 7.3940376,4.88170846 7.21653671,5.09324579 L5.70800139,6.89104817 C5.55022281,7.07908136 5.28350446,7.12177501 5.07761217,7.00427653 L5.02789542,6.96947479 L3.50026887,5.97853519 C3.26859934,5.82825598 3.20261945,5.51862535 3.35289866,5.28695582 C3.50317786,5.05528629 3.81280849,4.9893064 4.04447802,5.13958561 L4.04447802,5.13958561 L5.22731447,5.90684034 L6.45049226,4.45045818 C6.62799316,4.23892085 6.94337096,4.21132886 7.15490829,4.38882976 Z" id="Combined-Shape"></path>
        </g>
    </g>
</svg>