<?xml version="1.0" encoding="UTF-8"?>
<svg width="18px" height="18px" viewBox="0 0 18 18" version="1.1" xmlns="http://www.w3.org/2000/svg" xmlns:xlink="http://www.w3.org/1999/xlink">
    <!-- Generator: sketchtool 42 (36781) - http://www.bohemiancoding.com/sketch -->
    <title>15771A9A-5F90-441A-A79B-C7E4D4D3F04D</title>
    <desc>Created with sketchtool.</desc>
    <defs></defs>
    <g id="Page-1" stroke="none" stroke-width="1" fill="none" fill-rule="evenodd">
        <g id="Global01" transform="translate(-1238.000000, -319.000000)" fill="#000000">
            <g id="Search-Filter" transform="translate(130.000000, 308.000000)">
                <g id="Search-Box">
                    <g id="SearchButton" transform="translate(1097.000000, 0.000000)">
                        <path d="M18.7548421,12.3486682 C15.2220058,12.3486682 12.3486682,15.2226801 12.3486682,18.7548421 C12.3486682,22.2863297 15.2220058,25.1603417 18.7548421,25.1603417 C22.2870041,25.1603417 25.161016,22.2863297 25.161016,18.7548421 C25.161016,15.2226801 22.2870041,12.3486682 18.7548421,12.3486682 M28.3411756,29.0026973 C28.1651744,29.0026973 27.9999625,28.9345896 27.8752107,28.8098378 L23.7435657,24.6808901 C22.3429738,25.8629978 20.5843105,26.5096842 18.7548421,26.5096842 C14.4788896,26.5096842 11,23.0307946 11,18.7548421 C11,14.4788896 14.4788896,11 18.7548421,11 C23.0307946,11 26.5096842,14.4788896 26.5096842,18.7548421 C26.5096842,20.5829618 25.8636721,22.3409508 24.6835875,23.7415427 L28.8071404,27.8792567 C28.9318923,28.0040085 29,28.1698947 29,28.3465703 C28.9993257,28.5218971 28.9305436,28.687109 28.8057918,28.8105121 C28.683063,28.9345896 28.5178511,29.0026973 28.3411756,29.0026973" id="IconSearch"></path>
                    </g>
                </g>
            </g>
        </g>
    </g>
</svg>