<?xml version="1.0" encoding="UTF-8"?>
<svg width="14px" height="21px" viewBox="0 0 14 21" version="1.1" xmlns="http://www.w3.org/2000/svg" xmlns:xlink="http://www.w3.org/1999/xlink">
    <!-- Generator: sketchtool 42 (36781) - http://www.bohemiancoding.com/sketch -->
    <title>32F7980B-260A-4392-ADB8-E33D1C35532F</title>
    <desc>Created with sketchtool.</desc>
    <defs></defs>
    <g id="Page-1" stroke="none" stroke-width="1" fill="none" fill-rule="evenodd">
        <g id="Login" transform="translate(-581.000000, -473.000000)" fill="#6A7882">
            <g id="LoginBox" transform="translate(539.000000, 284.000000)">
                <g id="Password" transform="translate(29.000000, 180.000000)">
                    <path d="M20.0001647,25.4721529 C19.7728706,25.4721529 19.5884,25.2876824 19.5884,25.0603882 L19.5884,21.7662706 C19.5884,21.5389765 19.7728706,21.3545059 20.0001647,21.3545059 C20.2274588,21.3545059 20.4119294,21.5389765 20.4119294,21.7662706 L20.4119294,25.0603882 C20.4119294,25.2876824 20.2274588,25.4721529 20.0001647,25.4721529 L20.0001647,25.4721529 Z M20.0001647,16.4116824 C16.5956941,16.4116824 13.8360471,19.1770941 13.8360471,22.5881529 C13.8360471,26.0000353 16.5956941,28.7646235 20.0001647,28.7646235 C23.4038118,28.7646235 26.1634588,26.0000353 26.1634588,22.5881529 C26.1634588,19.1770941 23.4038118,16.4116824 20.0001647,16.4116824 L20.0001647,16.4116824 Z M24.5295765,14.3545059 C24.5295765,11.8534471 22.5012235,9.82509412 20.0001647,9.82509412 C17.4982824,9.82509412 15.4707529,11.8534471 15.4707529,14.3545059 L15.4707529,17.2566235 C16.6920471,16.2189765 18.2715765,15.5889765 20.0001647,15.5889765 C21.7287529,15.5889765 23.3082824,16.2189765 24.5295765,17.2566235 L24.5295765,14.3545059 Z M20.0001647,29.5889765 C16.1336941,29.5889765 13.0001647,26.4546235 13.0001647,22.5889765 C13.0001647,20.8653294 13.6252235,19.2899176 14.6579294,18.0702706 L14.6579294,14.3685059 C14.6579294,11.4029765 17.0494588,8.99991765 19.9993412,8.99991765 C22.9500471,8.99991765 25.3424,11.4029765 25.3424,14.3685059 L25.3424,18.0702706 C26.3742824,19.2899176 27.0001647,20.8653294 27.0001647,22.5889765 C27.0001647,26.4546235 23.8658118,29.5889765 20.0001647,29.5889765 L20.0001647,29.5889765 Z" id="iconPassword"></path>
                </g>
            </g>
        </g>
    </g>
</svg>