<?xml version="1.0" encoding="UTF-8"?>
<svg width="16px" height="19px" viewBox="0 0 16 19" version="1.1" xmlns="http://www.w3.org/2000/svg" xmlns:xlink="http://www.w3.org/1999/xlink">
    <!-- Generator: sketchtool 42 (36781) - http://www.bohemiancoding.com/sketch -->
    <title>132C0093-57CB-4E3A-8B41-4FDBA9AB73F2</title>
    <desc>Created with sketchtool.</desc>
    <defs></defs>
    <g id="Page-1" stroke="none" stroke-width="1" fill="none" fill-rule="evenodd">
        <g id="Login" transform="translate(-580.000000, -401.000000)" fill="#6A7882">
            <g id="LoginBox" transform="translate(539.000000, 284.000000)">
                <g id="Username" transform="translate(29.000000, 106.000000)">
                    <path d="M24.6314105,16.4732632 C24.6314105,13.9157895 22.5581474,11.8408421 19.9998316,11.8408421 C17.4415158,11.8408421 15.3682526,13.9157895 15.3682526,16.4732632 C15.3682526,19.0315789 17.4415158,21.1048421 19.9998316,21.1048421 C22.5581474,21.1048421 24.6314105,19.0315789 24.6314105,16.4732632 L24.6314105,16.4732632 Z M27.1366737,29.5258947 C27.1450947,29.3861053 27.1577263,29.2471579 27.1577263,29.1056842 C27.1577263,25.152 23.9526737,21.9469474 19.9998316,21.9469474 C16.0469895,21.9469474 12.8419368,25.152 12.8419368,29.1056842 C12.8419368,29.2471579 12.8554105,29.3861053 12.8629895,29.5258947 L12.0208842,29.5258947 C12.0141474,29.3852632 11.9998316,29.2471579 11.9998316,29.1056842 C11.9998316,25.4821053 14.4090947,22.4252632 17.7118316,21.4408421 C15.8330947,20.5743158 14.5261474,18.6787368 14.5261474,16.4732632 C14.5261474,13.4501053 16.9766737,11.0004211 19.9998316,11.0004211 C23.0229895,11.0004211 25.4735158,13.4501053 25.4735158,16.4732632 C25.4735158,18.6787368 24.1665684,20.5743158 22.2878316,21.4408421 C25.5905684,22.4252632 27.9998316,25.4821053 27.9998316,29.1056842 C27.9998316,29.2471579 27.9863579,29.3852632 27.9787789,29.5258947 L27.1366737,29.5258947 Z" id="iconUsername"></path>
                </g>
            </g>
        </g>
    </g>
</svg>